<svg xmlns="http://www.w3.org/2000/svg" viewBox="0 0 64 64" width="64" height="64">
  <defs>
    <linearGradient id="bg" x1="0" y1="0" x2="64" y2="64" gradientUnits="userSpaceOnUse">
      <stop offset="0" stop-color="#150a24" />
      <stop offset="1" stop-color="#08040f" />
    </linearGradient>
    <linearGradient id="spark" x1="18" y1="14" x2="46" y2="42" gradientUnits="userSpaceOnUse">
      <stop offset="0" stop-color="#fde047" />
      <stop offset="1" stop-color="#d946ef" />
    </linearGradient>
  </defs>
  <rect width="64" height="64" rx="18" fill="url(#bg)" />
  <!-- Large four-point sparkle -->
  <path
    d="M32 14 C33.4 22.5 37.5 26.6 46 28 C37.5 29.4 33.4 33.5 32 42 C30.6 33.5 26.5 29.4 18 28 C26.5 26.6 30.6 22.5 32 14 Z"
    fill="url(#spark)"
  />
  <!-- Small accent sparkle -->
  <path
    d="M45 40 C45.6 43.5 47 44.9 50.5 45.5 C47 46.1 45.6 47.5 45 51 C44.4 47.5 43 46.1 39.5 45.5 C43 44.9 44.4 43.5 45 40 Z"
    fill="#a855f7"
  />
</svg>
